<svg viewBox="0 0 1024 1024" version="1.1" xmlns="http://www.w3.org/2000/svg" p-id="20675"><path d="M32 0v1024" opacity=".3" p-id="20676"></path><path d="M64 0v1024" p-id="20677"></path><path d="M96 0v1024" opacity=".3" p-id="20678"></path><path d="M128 0v1024" p-id="20679"></path><path d="M160 0v1024" opacity=".3" p-id="20680"></path><path d="M192 0v1024" p-id="20681"></path><path d="M224 0v1024" opacity=".3" p-id="20682"></path><path d="M256 0v1024" p-id="20683"></path><path d="M288 0v1024" opacity=".3" p-id="20684"></path><path d="M320 0v1024" p-id="20685"></path><path d="M352 0v1024" opacity=".3" p-id="20686"></path><path d="M384 0v1024" p-id="20687"></path><path d="M416 0v1024" opacity=".3" p-id="20688"></path><path d="M448 0v1024" p-id="20689"></path><path d="M480 0v1024" opacity=".3" p-id="20690"></path><path d="M512 0v1024" p-id="20691"></path><path d="M544 0v1024" opacity=".3" p-id="20692"></path><path d="M576 0v1024" p-id="20693"></path><path d="M608 0v1024" opacity=".3" p-id="20694"></path><path d="M640 0v1024" p-id="20695"></path><path d="M672 0v1024" opacity=".3" p-id="20696"></path><path d="M704 0v1024" p-id="20697"></path><path d="M736 0v1024" opacity=".3" p-id="20698"></path><path d="M768 0v1024" p-id="20699"></path><path d="M800 0v1024" opacity=".3" p-id="20700"></path><path d="M832 0v1024" p-id="20701"></path><path d="M864 0v1024" opacity=".3" p-id="20702"></path><path d="M896 0v1024" p-id="20703"></path><path d="M928 0v1024" opacity=".3" p-id="20704"></path><path d="M960 0v1024" p-id="20705"></path><path d="M992 0v1024M0 32h1024" opacity=".3" p-id="20706"></path><path d="M0 64h1024" p-id="20707"></path><path d="M0 96h1024" opacity=".3" p-id="20708"></path><path d="M0 128h1024" p-id="20709"></path><path d="M0 160h1024" opacity=".3" p-id="20710"></path><path d="M0 192h1024" p-id="20711"></path><path d="M0 224h1024" opacity=".3" p-id="20712"></path><path d="M0 256h1024" p-id="20713"></path><path d="M0 288h1024" opacity=".3" p-id="20714"></path><path d="M0 320h1024" p-id="20715"></path><path d="M0 352h1024" opacity=".3" p-id="20716"></path><path d="M0 384h1024" p-id="20717"></path><path d="M0 416h1024" opacity=".3" p-id="20718"></path><path d="M0 448h1024" p-id="20719"></path><path d="M0 480h1024" opacity=".3" p-id="20720"></path><path d="M0 512h1024" p-id="20721"></path><path d="M0 544h1024" opacity=".3" p-id="20722"></path><path d="M0 576h1024" p-id="20723"></path><path d="M0 608h1024" opacity=".3" p-id="20724"></path><path d="M0 640h1024" p-id="20725"></path><path d="M0 672h1024" opacity=".3" p-id="20726"></path><path d="M0 704h1024" p-id="20727"></path><path d="M0 736h1024" opacity=".3" p-id="20728"></path><path d="M0 768h1024" p-id="20729"></path><path d="M0 800h1024" opacity=".3" p-id="20730"></path><path d="M0 832h1024" p-id="20731"></path><path d="M0 864h1024" opacity=".3" p-id="20732"></path><path d="M0 896h1024" p-id="20733"></path><path d="M0 928h1024" opacity=".3" p-id="20734"></path><path d="M0 960h1024" p-id="20735"></path><path d="M0 992h1024" opacity=".3" p-id="20736"></path><path d="M61.44 793.6h133.12c5.12 0 10.24-5.12 10.24-15.36V399.36c0-10.24-5.12-15.36-10.24-15.36H61.44c-5.12 0-10.24 5.12-10.24 15.36v384c0 5.12 5.12 10.24 10.24 10.24zM266.24 793.6h133.12c5.12 0 10.24-5.12 10.24-10.24V87.04c0-5.12-5.12-10.24-10.24-10.24h-133.12c-5.12 0-10.24 5.12-10.24 10.24v691.2c0 10.24 5.12 15.36 10.24 15.36zM471.04 793.6h128c5.12 0 10.24-5.12 10.24-15.36v-486.4c0-5.12-5.12-10.24-10.24-10.24h-133.12s-5.12 5.12-5.12 10.24v486.4c0 10.24 5.12 15.36 10.24 15.36zM686.08 691.2H768v81.92c0 10.24 10.24 20.48 20.48 20.48h61.44c10.24 0 20.48-10.24 20.48-20.48V691.2h81.92c10.24 0 20.48-10.24 20.48-20.48v-61.44c0-10.24-10.24-20.48-20.48-20.48H870.4v-81.92c0-10.24-10.24-20.48-20.48-20.48h-61.44c-10.24 0-20.48 10.24-20.48 20.48v81.92h-81.92c-10.24 0-20.48 10.24-20.48 20.48v61.44c0 10.24 10.24 20.48 20.48 20.48zM983.04 844.8H40.96C20.48 844.8 0 865.28 0 885.76v20.48c0 20.48 20.48 40.96 40.96 40.96h942.08c20.48 0 40.96-20.48 40.96-40.96v-20.48c0-20.48-20.48-40.96-40.96-40.96z" p-id="20737"></path></svg>